<svg width="1028" height="784" viewBox="0 0 1028 784" fill="none" xmlns="http://www.w3.org/2000/svg">
<g id="calc">
<g id="themaincalculator">
<path id="Vector 5" d="M921.55 92H509.8C504.388 92 500 96.3876 500 101.8V723.58C500 728.992 504.388 733.38 509.8 733.38H921.55C926.962 733.38 931.35 728.992 931.35 723.58V101.8C931.35 96.3876 926.962 92 921.55 92Z" fill="#3A3768"/>
<path id="Vector 6" opacity="0.1" d="M868 147.13H568.69C552.558 147.13 539.48 160.208 539.48 176.34V244.01C539.48 260.142 552.558 273.22 568.69 273.22H868C884.132 273.22 897.21 260.142 897.21 244.01V176.34C897.21 160.208 884.132 147.13 868 147.13Z" fill="black"/>
<g id="Afficheur">
<path id="Vector 7" d="M883.89 149.59H551.98C546.347 149.59 541.78 154.157 541.78 159.79V261.34C541.78 266.973 546.347 271.54 551.98 271.54H883.89C889.523 271.54 894.09 266.973 894.09 261.34V159.79C894.09 154.157 889.523 149.59 883.89 149.59Z" fill="#E6E8EC"/>
</g>
<path id="Vector 10" d="M872.63 412.69H824.09C817.849 412.69 812.79 417.749 812.79 423.99V480.43C812.79 486.671 817.849 491.73 824.09 491.73H872.63C878.871 491.73 883.93 486.671 883.93 480.43V423.99C883.93 417.749 878.871 412.69 872.63 412.69Z" fill="#6C63FF"/>
<g id="7">
<path id="Vector 145" opacity="0.1" d="M612.29 325.26H562.73C556.771 325.26 551.94 330.091 551.94 336.05V393.51C551.94 399.469 556.771 404.3 562.73 404.3H612.29C618.249 404.3 623.08 399.469 623.08 393.51V336.05C623.08 330.091 618.249 325.26 612.29 325.26Z" fill="black"/>
<path id="7 2" d="M594.193 358.756L586.832 375.26H584.464L591.8 359.342H582.181V357.487H594.193V358.756Z" fill="white"/>
</g>
<g id="4">
<path id="Vector 146" opacity="0.1" d="M612.29 417.26H562.73C556.771 417.26 551.94 422.091 551.94 428.05V485.51C551.94 491.469 556.771 496.3 562.73 496.3H612.29C618.249 496.3 623.08 491.469 623.08 485.51V428.05C623.08 422.091 618.249 417.26 612.29 417.26Z" fill="black"/>
<path id="4 2" d="M591.252 460.291H593.718V462.134H591.252V466.26H588.981V462.134H580.888V460.803L588.847 448.487H591.252V460.291ZM583.451 460.291H588.981V451.575L588.713 452.063L583.451 460.291Z" fill="white"/>
</g>
<g id="1">
<path id="Vector 147" opacity="0.1" d="M612.29 508.26H562.73C556.771 508.26 551.94 513.091 551.94 519.05V576.51C551.94 582.469 556.771 587.3 562.73 587.3H612.29C618.249 587.3 623.08 582.469 623.08 576.51V519.05C623.08 513.091 618.249 508.26 612.29 508.26Z" fill="black"/>
<path id="1 2" d="M590.14 555.26H587.869V540.209L583.316 541.881V539.83L589.786 537.401H590.14V555.26Z" fill="white"/>
</g>
<g id="2">
<path id="Vector 148" opacity="0.1" d="M699.61 508.26H650.05C644.091 508.26 639.26 513.091 639.26 519.05V576.51C639.26 582.469 644.091 587.3 650.05 587.3H699.61C705.569 587.3 710.4 582.469 710.4 576.51V519.05C710.4 513.091 705.569 508.26 699.61 508.26Z" fill="black"/>
<path id="2 2" d="M681.364 555.26H669.718V553.636L675.87 546.801C676.782 545.767 677.408 544.929 677.75 544.286C678.1 543.635 678.275 542.963 678.275 542.272C678.275 541.344 677.994 540.583 677.433 539.989C676.871 539.395 676.123 539.098 675.187 539.098C674.064 539.098 673.189 539.419 672.562 540.062C671.944 540.697 671.635 541.584 671.635 542.723H669.376C669.376 541.088 669.901 539.765 670.951 538.756C672.009 537.747 673.421 537.242 675.187 537.242C676.839 537.242 678.145 537.678 679.105 538.549C680.066 539.411 680.546 540.563 680.546 542.003C680.546 543.753 679.431 545.836 677.201 548.253L672.44 553.417H681.364V555.26Z" fill="white"/>
</g>
<g id="3">
<path id="Vector 149" opacity="0.1" d="M786.19 508.67H736.63C730.671 508.67 725.84 513.501 725.84 519.46V576.92C725.84 582.879 730.671 587.71 736.63 587.71H786.19C792.149 587.71 796.98 582.879 796.98 576.92V519.46C796.98 513.501 792.149 508.67 786.19 508.67Z" fill="black"/>
<path id="3 2" d="M758.502 545.275H760.198C761.265 545.258 762.103 544.978 762.713 544.432C763.323 543.887 763.629 543.151 763.629 542.223C763.629 540.14 762.591 539.098 760.516 539.098C759.539 539.098 758.758 539.379 758.172 539.94C757.594 540.494 757.305 541.23 757.305 542.15H755.047C755.047 540.742 755.56 539.574 756.585 538.646C757.619 537.71 758.929 537.242 760.516 537.242C762.192 537.242 763.507 537.686 764.459 538.573C765.411 539.46 765.887 540.693 765.887 542.272C765.887 543.045 765.635 543.794 765.13 544.518C764.634 545.242 763.954 545.783 763.092 546.141C764.068 546.451 764.821 546.963 765.35 547.679C765.887 548.396 766.156 549.27 766.156 550.304C766.156 551.899 765.635 553.164 764.593 554.1C763.551 555.036 762.196 555.504 760.528 555.504C758.86 555.504 757.501 555.052 756.451 554.149C755.409 553.246 754.888 552.054 754.888 550.572H757.159C757.159 551.508 757.464 552.257 758.074 552.819C758.685 553.38 759.503 553.661 760.528 553.661C761.619 553.661 762.453 553.376 763.031 552.806C763.608 552.237 763.897 551.419 763.897 550.353C763.897 549.319 763.58 548.526 762.945 547.972C762.31 547.419 761.395 547.134 760.198 547.118H758.502V545.275Z" fill="white"/>
</g>
<g id="5">
<path id="Vector 150" opacity="0.1" d="M699.61 417.26H650.05C644.091 417.26 639.26 422.091 639.26 428.05V485.51C639.26 491.469 644.091 496.3 650.05 496.3H699.61C705.569 496.3 710.4 491.469 710.4 485.51V428.05C710.4 422.091 705.569 417.26 699.61 417.26Z" fill="black"/>
<path id="5 2" d="M670.756 455.349L671.659 446.487H680.765V448.574H673.575L673.038 453.42C673.909 452.907 674.898 452.651 676.005 452.651C677.624 452.651 678.91 453.188 679.862 454.262C680.814 455.329 681.29 456.773 681.29 458.596C681.29 460.427 680.794 461.871 679.801 462.929C678.816 463.979 677.437 464.504 675.663 464.504C674.092 464.504 672.81 464.069 671.818 463.198C670.825 462.327 670.259 461.123 670.121 459.585H672.257C672.395 460.602 672.758 461.371 673.343 461.892C673.929 462.405 674.703 462.661 675.663 462.661C676.713 462.661 677.535 462.303 678.129 461.587C678.731 460.871 679.032 459.882 679.032 458.62C679.032 457.432 678.706 456.48 678.055 455.764C677.413 455.04 676.554 454.677 675.48 454.677C674.495 454.677 673.722 454.893 673.16 455.324L672.562 455.813L670.756 455.349Z" fill="white"/>
</g>
<g id="6">
<path id="Vector 151" opacity="0.1" d="M786.61 417.26H737.05C731.091 417.26 726.26 422.091 726.26 428.05V485.51C726.26 491.469 731.091 496.3 737.05 496.3H786.61C792.569 496.3 797.4 491.469 797.4 485.51V428.05C797.4 422.091 792.569 417.26 786.61 417.26Z" fill="black"/>
<path id="6 2" d="M767.58 446.474V448.391H767.165C765.407 448.423 764.008 448.944 762.966 449.953C761.924 450.962 761.322 452.383 761.159 454.214C762.095 453.139 763.373 452.602 764.992 452.602C766.539 452.602 767.772 453.148 768.691 454.238C769.619 455.329 770.083 456.736 770.083 458.462C770.083 460.293 769.582 461.758 768.581 462.856C767.588 463.955 766.254 464.504 764.577 464.504C762.877 464.504 761.497 463.853 760.439 462.551C759.381 461.241 758.852 459.556 758.852 457.497V456.631C758.852 453.359 759.548 450.861 760.94 449.135C762.339 447.402 764.419 446.515 767.177 446.474H767.58ZM764.614 454.482C763.841 454.482 763.129 454.714 762.478 455.178C761.827 455.642 761.375 456.224 761.123 456.924V457.754C761.123 459.218 761.452 460.399 762.112 461.294C762.771 462.189 763.593 462.636 764.577 462.636C765.595 462.636 766.392 462.262 766.97 461.513C767.556 460.765 767.849 459.784 767.849 458.572C767.849 457.351 767.552 456.366 766.958 455.617C766.372 454.861 765.591 454.482 764.614 454.482Z" fill="white"/>
</g>
<g id="9">
<path id="Vector 152" opacity="0.1" d="M786.61 325.26H737.05C731.091 325.26 726.26 330.091 726.26 336.05V393.51C726.26 399.469 731.091 404.3 737.05 404.3H786.61C792.569 404.3 797.4 399.469 797.4 393.51V336.05C797.4 330.091 792.569 325.26 786.61 325.26Z" fill="black"/>
<path id="9 2" d="M764.373 366.448C763.901 367.009 763.335 367.461 762.676 367.802C762.025 368.144 761.309 368.315 760.528 368.315C759.502 368.315 758.607 368.063 757.842 367.558C757.085 367.054 756.499 366.346 756.084 365.434C755.669 364.515 755.462 363.502 755.462 362.395C755.462 361.207 755.685 360.136 756.133 359.184C756.589 358.232 757.232 357.504 758.062 356.999C758.892 356.495 759.86 356.242 760.967 356.242C762.725 356.242 764.108 356.902 765.117 358.22C766.135 359.53 766.643 361.321 766.643 363.591V364.25C766.643 367.709 765.96 370.236 764.593 371.831C763.225 373.418 761.162 374.232 758.404 374.272H757.964V372.368H758.44C760.304 372.335 761.736 371.851 762.737 370.915C763.738 369.971 764.283 368.482 764.373 366.448ZM760.894 366.448C761.651 366.448 762.346 366.216 762.981 365.752C763.624 365.288 764.092 364.714 764.385 364.031V363.127C764.385 361.646 764.064 360.442 763.421 359.514C762.778 358.586 761.964 358.122 760.979 358.122C759.986 358.122 759.189 358.505 758.587 359.27C757.984 360.027 757.683 361.028 757.683 362.273C757.683 363.485 757.972 364.486 758.55 365.276C759.136 366.057 759.917 366.448 760.894 366.448Z" fill="white"/>
</g>
<g id="8">
<path id="Vector 153" opacity="0.1" d="M699.61 325.26H650.05C644.091 325.26 639.26 330.091 639.26 336.05V393.51C639.26 399.469 644.091 404.3 650.05 404.3H699.61C705.569 404.3 710.4 399.469 710.4 393.51V336.05C710.4 330.091 705.569 325.26 699.61 325.26Z" fill="black"/>
<path id="8 2" d="M679.997 362.125C679.997 363.012 679.761 363.802 679.289 364.493C678.825 365.185 678.194 365.726 677.397 366.117C678.324 366.516 679.057 367.098 679.594 367.863C680.139 368.628 680.412 369.494 680.412 370.463C680.412 372.001 679.891 373.225 678.849 374.137C677.816 375.048 676.453 375.504 674.76 375.504C673.051 375.504 671.68 375.048 670.646 374.137C669.621 373.217 669.108 371.993 669.108 370.463C669.108 369.502 669.369 368.636 669.889 367.863C670.418 367.089 671.147 366.503 672.074 366.105C671.285 365.714 670.663 365.173 670.207 364.481C669.751 363.789 669.523 363.004 669.523 362.125C669.523 360.628 670.003 359.44 670.964 358.561C671.924 357.682 673.189 357.242 674.76 357.242C676.322 357.242 677.584 357.682 678.544 358.561C679.513 359.44 679.997 360.628 679.997 362.125ZM678.154 370.414C678.154 369.421 677.836 368.611 677.201 367.985C676.575 367.358 675.753 367.045 674.736 367.045C673.718 367.045 672.9 367.354 672.282 367.972C671.672 368.591 671.366 369.405 671.366 370.414C671.366 371.423 671.663 372.216 672.258 372.794C672.86 373.372 673.694 373.661 674.76 373.661C675.818 373.661 676.648 373.372 677.25 372.794C677.852 372.208 678.154 371.415 678.154 370.414ZM674.76 359.098C673.873 359.098 673.153 359.375 672.599 359.928C672.054 360.473 671.781 361.218 671.781 362.162C671.781 363.065 672.05 363.798 672.587 364.359C673.132 364.913 673.857 365.189 674.76 365.189C675.663 365.189 676.384 364.913 676.921 364.359C677.466 363.798 677.739 363.065 677.739 362.162C677.739 361.259 677.458 360.522 676.896 359.952C676.335 359.383 675.623 359.098 674.76 359.098Z" fill="white"/>
</g>
<g id="+">
<g id="ChangeColor">
<path id="Vector 154" d="M873.14 325.74H823.58C817.621 325.74 812.79 330.571 812.79 336.53V393.99C812.79 399.949 817.621 404.78 823.58 404.78H873.14C879.099 404.78 883.93 399.949 883.93 393.99V336.53C883.93 330.571 879.099 325.74 873.14 325.74Z" fill="#6C63FF"/>
</g>
<path id="+ 2" d="M850.346 361.726H855.302V363.863H850.346V369.478H848.076V363.863H843.12V361.726H848.076V356.538H850.346V361.726Z" fill="#A4A2A2"/>
</g>
<g id="-">
<g id="Changecolor2">
<path id="Vector 155" opacity="0.2" d="M872.63 412.69H824.09C817.849 412.69 812.79 417.749 812.79 423.99V480.43C812.79 486.671 817.849 491.73 824.09 491.73H872.63C878.871 491.73 883.93 486.671 883.93 480.43V423.99C883.93 417.749 878.871 412.69 872.63 412.69Z" fill="black"/>
</g>
<path id="-_2" d="M852.514 458.715H843.936V456.061H852.514V458.715Z" fill="#A4A2A2"/>
</g>
<g id="=">
<path id="Vector 156" opacity="0.1" d="M872.26 508.67H817.67C811.23 508.67 806.01 513.89 806.01 520.33V672.04C806.01 678.48 811.23 683.7 817.67 683.7H872.26C878.7 683.7 883.92 678.48 883.92 672.04V520.33C883.92 513.89 878.7 508.67 872.26 508.67Z" fill="black"/>
<path id="= 2" d="M853.213 593.951H838.553V591.121H853.213V593.951ZM853.213 601.246H838.553V598.434H853.213V601.246Z" fill="#A4A2A2"/>
</g>
<g id="/">
<path id="Vector 157" opacity="0.1" d="M786.19 604.65H736.63C730.671 604.65 725.84 609.481 725.84 615.44V672.9C725.84 678.859 730.671 683.69 736.63 683.69H786.19C792.149 683.69 796.98 678.859 796.98 672.9V615.44C796.98 609.481 792.149 604.65 786.19 604.65Z" fill="black"/>
<path id="/ 2" d="M756.953 660.457H754.158L764.846 632.666H767.623L756.953 660.457Z" fill="#A4A2A2"/>
</g>
<g id="0">
<path id="Vector 158" opacity="0.1" d="M699.99 604.65H561.98C556.435 604.65 551.94 609.145 551.94 614.69V673.65C551.94 679.195 556.435 683.69 561.98 683.69H699.99C705.535 683.69 710.03 679.195 710.03 673.65V614.69C710.03 609.145 705.535 604.65 699.99 604.65Z" fill="black"/>
<path id="0 2" d="M636.363 647.679C636.363 650.324 635.911 652.29 635.008 653.575C634.105 654.861 632.693 655.504 630.772 655.504C628.876 655.504 627.472 654.878 626.561 653.624C625.649 652.363 625.177 650.483 625.145 647.985V644.969C625.145 642.357 625.596 640.416 626.5 639.147C627.403 637.877 628.819 637.242 630.748 637.242C632.66 637.242 634.068 637.857 634.971 639.086C635.875 640.306 636.339 642.194 636.363 644.75V647.679ZM634.105 644.591C634.105 642.679 633.836 641.287 633.299 640.416C632.762 639.537 631.912 639.098 630.748 639.098C629.592 639.098 628.75 639.533 628.221 640.404C627.692 641.275 627.419 642.614 627.403 644.42V648.033C627.403 649.954 627.68 651.374 628.233 652.294C628.795 653.205 629.641 653.661 630.772 653.661C631.887 653.661 632.713 653.23 633.25 652.367C633.795 651.504 634.08 650.145 634.105 648.29V644.591Z" fill="white"/>
</g>
</g>
</g>
</svg>
